<svg width="30" height="30" viewBox="0 0 30 30" fill="none" xmlns="http://www.w3.org/2000/svg">
<g clip-path="url(#clip0_117_37)">
<path d="M27.6009 0H2.56316C1.19562 0 0 0.984632 0 2.33655V27.429C0 28.7887 1.19562 30 2.56316 30H27.5931C28.9684 30 30 28.7809 30 27.429V2.33655C30.0078 0.984632 28.9684 0 27.6009 0ZM9.29928 25.0065H5.0013V11.6437H9.29928V25.0065ZM7.29877 9.61188H7.26751C5.89215 9.61188 5.0013 8.58817 5.0013 7.30659C5.0013 6.00156 5.91559 5.0013 7.32221 5.0013C8.72882 5.0013 9.58842 5.99375 9.61968 7.30659C9.61968 8.58817 8.72882 9.61188 7.29877 9.61188ZM25.0065 25.0065H20.7085V17.6999C20.7085 15.9495 20.0833 14.7538 18.5282 14.7538C17.3404 14.7538 16.6371 15.5587 16.3245 16.3402C16.2073 16.6215 16.1761 17.0044 16.1761 17.3952V25.0065H11.8781V11.6437H16.1761V13.5035C16.8012 12.6127 17.778 11.3311 20.0521 11.3311C22.8731 11.3311 25.0065 13.1909 25.0065 17.1998V25.0065Z" fill="#FDF9F9"/>
</g>
<defs>
<clipPath id="clip0_117_37">
<rect width="30" height="30" fill="white"/>
</clipPath>
</defs>
</svg>
