<svg width="32" height="32" viewBox="0 0 32 32" fill="none" xmlns="http://www.w3.org/2000/svg">
<path d="M31.9926 11.2778C32.0645 8.3168 31.6095 5.37796 30.6698 2.73414C30.0323 1.64932 29.1475 0.91724 28.1696 0.665461C24.1249 0.14317 20.0635 -0.0708991 16.0027 0.024169C11.9568 -0.075214 7.90995 0.131948 3.87947 0.644774C3.08262 0.851056 2.34519 1.38297 1.75717 2.1756C0.448904 3.89261 0.303541 6.83014 0.158178 9.31256C-0.052726 13.7759 -0.052726 18.2543 0.158178 22.7176C0.200232 24.1148 0.346414 25.5017 0.594266 26.855C0.769538 27.8998 1.12415 28.8665 1.62634 29.6684C2.21836 30.503 2.97296 31.0652 3.79225 31.282C6.92615 31.8325 10.0839 32.0606 13.2408 31.9646C18.3285 32.0681 22.7912 31.9646 28.0678 31.3854C28.9072 31.1819 29.6831 30.6191 30.2919 29.7718C30.6988 29.1924 31.0028 28.4832 31.1786 27.7031C31.6985 25.433 31.9538 23.0571 31.9345 20.6696C31.9926 19.5112 31.9926 12.519 31.9926 11.2778ZM12.7175 21.9108V9.10569L21.323 15.5393C18.91 17.4425 15.7265 19.5939 12.7175 21.9108Z" fill="#FFF5F5"/>
</svg>
